#!OML:ASF H:\ManfredETheater\Project 1\Capture day 1\Session 1\subject.ASF
:FULLY-SPECIFIED
:DEGREES
183
root 2.58053 9.28449 -26.2176 168.367 -50.9019 -151.547
lowerback 46.9807 -1.78027 -2.36291
upperback 11.3742 -5.90611 2.51048
thorax -8.13831 -4.01515 6.64692
lowerneck -9.71403 -8.49289 -8.80118
upperneck -1.70152 -12.7063 27.8809
head 3.78846 -6.35248 9.24544
rclavicle -6.67916e-014 -1.33583e-013
rhumerus 9.67764 -11.094 -45.2549
rradius 84.2562
rwrist -13.0477
rhand -25.792 -4.31726
rfingers 7.12502
rthumb 0.746668 -34.2957
lclavicle -6.67916e-014 -1.33583e-013
lhumerus -1.97929 5.03487 63.2352
lradius 15.5425
lwrist -41.321
lhand -56.9669 -50.2722
lfingers 7.12502
lthumb -29.2599 -22.5534
rfemur -113.59 -12.7046 38.8936
rtibia 98.2448
rfoot 7.43861 -7.4967
rtoes 1.55868
lfemur -78.1141 38.8589 -41.3281
ltibia 142.071
lfoot -15.2545 -29.2972
ltoes 6.6839
184
root 2.61605 9.4083 -26.4436 169.073 -51.6032 -152.079
lowerback 47.0466 -1.91173 -2.03592
upperback 11.1875 -5.84112 2.61439
thorax -8.38531 -3.94833 6.58456
lowerneck -9.50018 -8.58387 -8.96578
upperneck -2.06261 -12.686 27.7274
head 3.63976 -6.36751 9.23478
rclavicle -5.40694e-014 -1.11319e-014
rhumerus 9.48756 -10.9878 -45.6581
rradius 83.7471
rwrist -12.6102
rhand -25.7126 -4.30438
rfingers 7.12502
rthumb 0.82332 -34.2825
lclavicle -5.40694e-014 -1.11319e-014
lhumerus -1.52903 6.74327 63.6347
lradius 14.3337
lwrist -43.2231
lhand -56.4561 -44.6203
lfingers 7.12502
lthumb -28.772 -16.8176
rfemur -113.536 -12.212 38.4368
rtibia 98.8283
rfoot 6.74957 -8.48919
rtoes 3.27612
lfemur -77.1004 38.4504 -40.0072
ltibia 141.774
lfoot -16.0521 -29.1211
ltoes 6.24334
185
root 2.64704 9.53907 -26.6583 169.538 -52.152 -152.409
lowerback 47.1915 -2.03773 -1.60031
upperback 11.0038 -5.72809 2.76661
thorax -8.65515 -3.86779 6.50346
lowerneck -9.2766 -8.65882 -9.14844
upperneck -2.4173 -12.6425 27.5406
head 3.48518 -6.36976 9.22008
rclavicle -6.36111e-015 -3.49861e-014
rhumerus 9.45843 -10.8256 -46.1141
rradius 83.1688
rwrist -12.0845
rhand -25.6388 -4.24838
rfingers 7.12502
rthumb 0.894624 -34.2262
lclavicle -6.36111e-015 -3.49861e-014
lhumerus -1.18313 8.62748 64.1387
lradius 13.4142
lwrist -45.3274
lhand -55.7069 -38.6656
lfingers 7.12502
lthumb -28.0561 -10.7434
rfemur -113.135 -11.7305 38.2195
rtibia 99.2343
rfoot 5.83733 -9.35563
rtoes 4.52913
lfemur -75.8881 38.107 -38.4607
ltibia 141.361
lfoot -16.9934 -28.9925
ltoes 5.9724
186
root 2.6739 9.67726 -26.8644 169.902 -52.6352 -152.641
lowerback 47.3252 -2.17135 -1.10483
upperback 10.8293 -5.59678 2.94509
thorax -8.91355 -3.78455 6.41122
lowerneck -9.08151 -8.73109 -9.33678
upperneck -2.74945 -12.604 27.3511
head 3.3436 -6.37054 9.20416
rclavicle -1.08139e-013 -4.77083e-014
rhumerus 9.53413 -10.6262 -46.6386
rradius 82.5445
rwrist -11.5393
rhand -25.5866 -4.17585
rfingers 7.12502
rthumb 0.945002 -34.1535
lclavicle -1.08139e-013 -4.77083e-014
lhumerus -0.919966 10.3147 64.722
lradius 12.8292
lwrist -47.2312
lhand -54.5886 -32.4897
lfingers 7.12502
lthumb -26.9866 -4.39723
rfemur -112.485 -11.3062 38.2179
rtibia 99.4426
rfoot 4.81664 -10.0321
rtoes 5.14668
lfemur -74.5633 37.5855 -36.8669
ltibia 140.82
lfoot -18.0195 -28.7571
ltoes 5.93853
187
root 2.69773 9.82441 -27.0639 170.343 -53.1258 -152.939
lowerback 47.3789 -2.30743 -0.625637
upperback 10.6654 -5.47159 3.12366
thorax -9.13742 -3.70613 6.32432
lowerneck -8.94572 -8.81507 -9.50936
upperneck -3.04806 -12.5962 27.1724
head 3.2281 -6.38066 9.18295
rclavicle -2.22639e-014 5.88403e-014
rhumerus 9.64093 -10.4119 -47.2231
rradius 81.8972
rwrist -11.048
rhand -25.5805 -4.10104
rfingers 7.12502
rthumb 0.950872 -34.0787
lclavicle -2.22639e-014 5.88403e-014
lhumerus -0.718869 11.3125 65.3548
lradius 12.6144
lwrist -48.4129
lhand -52.9882 -26.4475
lfingers 7.12502
lthumb -25.4545 1.87271
rfemur -111.753 -10.9852 38.3493
rtibia 99.4968
rfoot 3.79032 -10.5461
rtoes 5.38931
lfemur -73.2372 36.7689 -35.4494
ltibia 140.136
lfoot -19.0609 -28.2817
ltoes 5.83713
188
root 2.71848 9.97623 -27.2605 170.979 -53.6831 -153.427
lowerback 47.3288 -2.45343 -0.197269
upperback 10.5089 -5.37745 3.27363
thorax -9.32311 -3.64005 6.23869
lowerneck -8.88584 -8.92136 -9.65679
upperneck -3.30996 -12.6365 27.0236
head 3.14679 -6.40835 9.15823
rclavicle -6.36111e-015 7.95139e-015
rhumerus 9.6964 -10.2001 -47.8576
rradius 81.2507
rwrist -10.6551
rhand -25.6449 -4.06661
rfingers 7.12502
rthumb 0.888755 -34.0445
lclavicle -6.36111e-015 7.95139e-015
lhumerus -0.558531 11.2704 66.0012
lradius 12.7869
lwrist -48.5182
lhand -50.7909 -20.6847
lfingers 7.12502
lthumb -23.348 7.91927
rfemur -111.098 -10.8241 38.5231
rtibia 99.4279
rfoot 2.91431 -10.8798
rtoes 5.19795
lfemur -72.0087 35.5644 -34.3625
ltibia 139.324
lfoot -20.0483 -27.4659
ltoes 5.67648
